<mxfile host="65bd71144e">
    <diagram id="KHgaDndN0BcgDwEBIwhA" name="Page-1">
        <mxGraphModel dx="1242" dy="611" grid="1" gridSize="10" guides="1" tooltips="1" connect="1" arrows="1" fold="1" page="1" pageScale="1" pageWidth="850" pageHeight="1100" math="0" shadow="0">
            <root>
                <mxCell id="0"/>
                <mxCell id="1" parent="0"/>
                <mxCell id="8" value="" style="edgeStyle=none;html=1;" edge="1" parent="1" source="6" target="7">
                    <mxGeometry relative="1" as="geometry"/>
                </mxCell>
                <mxCell id="33" style="edgeStyle=none;html=1;entryX=0;entryY=1;entryDx=0;entryDy=0;" edge="1" parent="1" source="6" target="30">
                    <mxGeometry relative="1" as="geometry">
                        <mxPoint x="430" y="40" as="targetPoint"/>
                    </mxGeometry>
                </mxCell>
                <mxCell id="6" value="customer&lt;br&gt;" style="shape=umlActor;verticalLabelPosition=bottom;verticalAlign=top;html=1;outlineConnect=0;" vertex="1" parent="1">
                    <mxGeometry x="60" y="280" width="30" height="60" as="geometry"/>
                </mxCell>
                <mxCell id="7" value="&lt;br&gt;rentMovie" style="whiteSpace=wrap;html=1;verticalAlign=top;" vertex="1" parent="1">
                    <mxGeometry x="210" y="280" width="120" height="60" as="geometry"/>
                </mxCell>
                <mxCell id="10" value="" style="endArrow=none;dashed=1;html=1;startArrow=none;" edge="1" parent="1" source="11">
                    <mxGeometry width="50" height="50" relative="1" as="geometry">
                        <mxPoint x="330" y="290" as="sourcePoint"/>
                        <mxPoint x="440" y="180" as="targetPoint"/>
                    </mxGeometry>
                </mxCell>
                <mxCell id="12" value="" style="endArrow=none;dashed=1;html=1;" edge="1" parent="1" target="11">
                    <mxGeometry width="50" height="50" relative="1" as="geometry">
                        <mxPoint x="330" y="290" as="sourcePoint"/>
                        <mxPoint x="440" y="180" as="targetPoint"/>
                    </mxGeometry>
                </mxCell>
                <mxCell id="11" value="includes" style="text;html=1;strokeColor=none;fillColor=none;align=center;verticalAlign=middle;whiteSpace=wrap;rounded=0;" vertex="1" parent="1">
                    <mxGeometry x="350" y="220" width="60" height="30" as="geometry"/>
                </mxCell>
                <mxCell id="13" value="payForRent" style="ellipse;whiteSpace=wrap;html=1;" vertex="1" parent="1">
                    <mxGeometry x="440" y="150" width="90" height="50" as="geometry"/>
                </mxCell>
                <mxCell id="14" value="" style="endArrow=none;dashed=1;html=1;startArrow=none;" edge="1" parent="1" source="16">
                    <mxGeometry width="50" height="50" relative="1" as="geometry">
                        <mxPoint x="330" y="320" as="sourcePoint"/>
                        <mxPoint x="550" y="320" as="targetPoint"/>
                    </mxGeometry>
                </mxCell>
                <mxCell id="15" value="rentHistory" style="ellipse;whiteSpace=wrap;html=1;" vertex="1" parent="1">
                    <mxGeometry x="540" y="285" width="100" height="70" as="geometry"/>
                </mxCell>
                <mxCell id="17" value="" style="endArrow=none;dashed=1;html=1;" edge="1" parent="1" target="16">
                    <mxGeometry width="50" height="50" relative="1" as="geometry">
                        <mxPoint x="330" y="320" as="sourcePoint"/>
                        <mxPoint x="550" y="320" as="targetPoint"/>
                    </mxGeometry>
                </mxCell>
                <mxCell id="16" value="extends" style="text;html=1;strokeColor=none;fillColor=none;align=center;verticalAlign=middle;whiteSpace=wrap;rounded=0;" vertex="1" parent="1">
                    <mxGeometry x="395" y="300" width="60" height="30" as="geometry"/>
                </mxCell>
                <mxCell id="18" value="addCustomer&lt;br&gt;" style="rounded=1;whiteSpace=wrap;html=1;" vertex="1" parent="1">
                    <mxGeometry x="410" y="410" width="90" height="50" as="geometry"/>
                </mxCell>
                <mxCell id="20" value="" style="endArrow=classic;html=1;exitX=1;exitY=1;exitDx=0;exitDy=0;exitPerimeter=0;" edge="1" parent="1" source="6" target="18">
                    <mxGeometry width="50" height="50" relative="1" as="geometry">
                        <mxPoint x="400" y="330" as="sourcePoint"/>
                        <mxPoint x="450" y="280" as="targetPoint"/>
                    </mxGeometry>
                </mxCell>
                <mxCell id="31" style="edgeStyle=none;html=1;entryX=1;entryY=1;entryDx=0;entryDy=0;" edge="1" parent="1" source="23" target="30">
                    <mxGeometry relative="1" as="geometry"/>
                </mxCell>
                <mxCell id="23" value="owner&lt;br&gt;" style="shape=umlActor;verticalLabelPosition=bottom;verticalAlign=top;html=1;outlineConnect=0;" vertex="1" parent="1">
                    <mxGeometry x="790" y="285" width="30" height="60" as="geometry"/>
                </mxCell>
                <mxCell id="26" value="" style="endArrow=classic;html=1;entryX=1;entryY=0.25;entryDx=0;entryDy=0;" edge="1" parent="1" source="23" target="18">
                    <mxGeometry width="50" height="50" relative="1" as="geometry">
                        <mxPoint x="760" y="410" as="sourcePoint"/>
                        <mxPoint x="450" y="280" as="targetPoint"/>
                        <Array as="points"/>
                    </mxGeometry>
                </mxCell>
                <mxCell id="28" value="custDBUp&lt;br&gt;" style="rounded=1;whiteSpace=wrap;html=1;" vertex="1" parent="1">
                    <mxGeometry x="410" y="520" width="90" height="50" as="geometry"/>
                </mxCell>
                <mxCell id="29" value="" style="endArrow=classic;html=1;exitX=0;exitY=1;exitDx=0;exitDy=0;exitPerimeter=0;entryX=1;entryY=0.5;entryDx=0;entryDy=0;" edge="1" parent="1" source="23" target="28">
                    <mxGeometry width="50" height="50" relative="1" as="geometry">
                        <mxPoint x="400" y="330" as="sourcePoint"/>
                        <mxPoint x="450" y="280" as="targetPoint"/>
                    </mxGeometry>
                </mxCell>
                <mxCell id="34" style="edgeStyle=none;html=1;exitX=0;exitY=0.75;exitDx=0;exitDy=0;" edge="1" parent="1" source="30">
                    <mxGeometry relative="1" as="geometry">
                        <mxPoint x="430" y="58" as="targetPoint"/>
                    </mxGeometry>
                </mxCell>
                <mxCell id="30" value="trends" style="rounded=1;whiteSpace=wrap;html=1;" vertex="1" parent="1">
                    <mxGeometry x="400" y="60" width="80" height="50" as="geometry"/>
                </mxCell>
                <mxCell id="38" value="movie - movieDB&lt;br&gt;" style="text;html=1;strokeColor=none;fillColor=none;align=center;verticalAlign=middle;whiteSpace=wrap;rounded=0;" vertex="1" parent="1">
                    <mxGeometry x="45" y="490" width="60" height="30" as="geometry"/>
                </mxCell>
                <mxCell id="40" value="custumer -&lt;br&gt;custumerDB&lt;br&gt;" style="text;html=1;strokeColor=none;fillColor=none;align=center;verticalAlign=middle;whiteSpace=wrap;rounded=0;" vertex="1" parent="1">
                    <mxGeometry x="140" y="490" width="60" height="30" as="geometry"/>
                </mxCell>
            </root>
        </mxGraphModel>
    </diagram>
</mxfile>